<svg xmlns="http://www.w3.org/2000/svg" width="166" height="46" viewBox="-80.562 37 166 46" enable-background="new -80.562 37 166 46"><path d="M-32.658 82.246v.754h.591v-.754h-.591zm0-1.509v.755h.591v-.755h-.591zm0-1.508v.754h.591v-.754h-.591zm0-1.507v.754h.591v-.754h-.591zm0-1.509v.755h.591v-.755h-.591zm0-1.508v.754h.591v-.754h-.591zm0-1.509v.754h.591v-.754h-.591zm0-1.508v.754h.591v-.754h-.591zm0-1.507v.754h.591v-.754h-.591zm0-1.508v.754h.591v-.754h-.591zm0-1.509v.754h.591v-.754h-.591zm0-1.509v.754h.591v-.754h-.591zm0-1.508v.754h.591v-.754h-.591zm0-1.508v.755h.591v-.755h-.591zm0-1.508v.754h.591v-.754h-.591zm0-1.508v.754h.591v-.754h-.591zm0-1.508v.754h.591v-.754h-.591zm0-1.509v.754h.591v-.754h-.591zm0-1.508v.754h.591v-.754h-.591zm0-1.508v.754h.591v-.754h-.591zm0-1.508v.754h.591v-.754h-.591zm0-1.508v.754h.591v-.754h-.591zm0-1.509v.754h.591v-.754h-.591zm0-1.507v.754h.591v-.754h-.591zm0-1.509v.754h.591v-.754h-.591zm0-1.508v.754h.591v-.754h-.591zm0-1.508v.754h.591v-.754h-.591zm0-1.509v.754h.591v-.754h-.591zm0-1.507v.754h.591v-.754h-.591zm0-1.509v.754h.591v-.754h-.591zm0-1.508v.754h.591v-.754h-.591zM74.107 63.546v-12.682h2.572l5.942 7.809v-7.809h2.755v12.682h-2.373l-6.144-8.062v8.062h-2.752zm-90.711.181c-1.92 0-3.859-.67-5.381-2.028l1.648-1.975c1.143.942 2.338 1.54 3.787 1.54 1.142 0 1.83-.453 1.83-1.195 0-.743-.436-1.105-2.555-1.649-2.555-.652-4.203-1.359-4.203-3.877 0-2.337 1.848-3.859 4.439-3.859 1.848 0 3.424.58 4.71 1.613l-1.45 2.102c-1.123-.779-2.229-1.25-3.297-1.25s-1.631.489-1.631 1.105c0 .87.543 1.142 2.736 1.703 2.572.67 4.021 1.595 4.021 3.805.002 2.551-1.918 3.965-4.654 3.965zm12.373.019c-3.406 0-5.49-1.903-5.49-5.635v-7.247h2.791v7.174c0 2.066 1.032 3.135 2.735 3.135s2.736-1.033 2.736-3.043v-7.266h2.79v7.157c0 3.839-2.156 5.725-5.562 5.725zm8.406-.2v-12.682h5.888c1.449 0 2.591.398 3.315 1.123.58.58.871 1.286.871 2.156 0 1.467-.762 2.265-1.668 2.772 1.469.562 2.374 1.414 2.374 3.116 0 2.355-1.886 3.515-4.747 3.515h-6.033zm2.717-7.555h2.572c1.233 0 2.013-.398 2.013-1.34 0-.87-.653-1.341-1.831-1.341h-2.754v2.681zm0 5.109h3.316c1.231 0 1.976-.435 1.976-1.376 0-.887-.635-1.413-2.066-1.413h-3.226v2.789zm9.747-1.848v-2.645h5.581v2.645h-5.581zm12.517 4.475c-1.92 0-3.858-.67-5.382-2.028l1.649-1.975c1.142.942 2.338 1.54 3.787 1.54 1.142 0 1.829-.453 1.829-1.195 0-.743-.435-1.105-2.554-1.649-2.556-.652-4.203-1.359-4.203-3.877 0-2.337 1.848-3.859 4.438-3.859 1.849 0 3.425.58 4.711 1.613l-1.45 2.102c-1.123-.779-2.228-1.25-3.297-1.25s-1.631.489-1.631 1.105c0 .87.544 1.142 2.736 1.703 2.572.67 4.021 1.595 4.021 3.805.002 2.551-1.917 3.965-4.654 3.965zm7.082-.181v-12.682h9.567v2.482h-6.794v2.573h5.978v2.481h-5.978v2.663h6.884v2.482h-9.657v.001zm16.181.091l-5.129-12.773h3.081l3.315 8.933 3.315-8.933h3.008l-5.127 12.773h-2.463zm9.55-.091v-12.682h9.566v2.482h-6.795v2.573h5.979v2.481h-5.979v2.663h6.885v2.482h-9.656v.001zM-80.5 81.847c0-.448.838-.812 1.873-.812h34.796c1.035 0 1.873.363 1.873.812s-.838.812-1.873.812h-34.796c-1.035-.001-1.873-.364-1.873-.812zm31.879-33.297c-3.871 3.85-9.812 22.52-9.812 27.717l-11.111-.057c1.243-10.233 10.566-23.7 14.708-27.603l6.215-.057zm1.865-3.125h-19.158c-.914 0-1.827.557-2.741 1.669-.896 1.097-1.559 2.013-1.989 2.749-.752.651-1.523.976-2.311.976-1.04 0-1.559-.642-1.559-1.926l2.821-11.585h29.987l-5.05 8.117z"/></svg>